<?xml version="1.0" encoding="utf-8"?>
<!-- Generator: Adobe Illustrator 27.5.0, SVG Export Plug-In . SVG Version: 6.00 Build 0)  -->
<svg version="1.1" id="Capa_1" xmlns="http://www.w3.org/2000/svg" xmlns:xlink="http://www.w3.org/1999/xlink" x="0px" y="0px"
	 viewBox="0 0 2122 2122" style="enable-background:new 0 0 2122 2122;" xml:space="preserve">
<g>
	<path style="fill:#EC6F17;" d="M1881.685,1021.155c-3.9-7.449-7.96-14.756-12.16-21.927c-1.873-4.359-3.94-8.665-6.174-12.908
		c-8.291-15.744-18.711-30.01-31.028-42.786c-0.007-0.01-0.014-0.02-0.021-0.03c-1.36-1.412-2.747-2.805-4.154-4.181
		c-0.019-0.019-0.038-0.038-0.057-0.056c-2.288-2.237-4.638-4.426-7.047-6.568c-0.098-0.088-0.197-0.175-0.295-0.263
		c-0.405-0.358-0.811-0.715-1.219-1.071c-0.132-0.115-0.264-0.23-0.397-0.345c-0.398-0.345-0.795-0.689-1.196-1.031
		c-0.135-0.116-0.271-0.23-0.406-0.345c-1.205-1.024-2.424-2.036-3.657-3.038c-0.264-0.214-0.527-0.43-0.792-0.643
		c-0.308-0.247-0.618-0.494-0.928-0.74c-0.282-0.224-0.564-0.448-0.847-0.671c-0.274-0.215-0.549-0.43-0.825-0.645
		c-0.35-0.273-0.701-0.545-1.054-0.817c-0.233-0.179-0.465-0.358-0.698-0.536c-0.476-0.364-0.955-0.725-1.435-1.086
		c-0.106-0.08-0.212-0.16-0.318-0.24c-1.267-0.948-2.548-1.883-3.841-2.809c-0.058-0.042-0.117-0.083-0.176-0.125
		c-0.606-0.433-1.214-0.863-1.826-1.29c-0.043-0.03-0.087-0.061-0.131-0.091c-74.738-52.183-192.248-68.018-326.692-47.297
		c-10.258-122.97-62.294-245.456-156.283-349.124c-144.136-158.967-378.511-258.972-610.148-228.862
		c-15.471,2.012-30.697,4.648-45.634,7.825c-37.328,8.009-72.946,19.647-106.739,34.303c-3.215-4.241-6.434-8.452-9.709-12.53
		c-6.777-8.428-14.01-17.208-24.069-21.188c-12.17-4.814-25.948-1.617-38.331,2.621c-10.616,3.635-22.592,10.051-23.613,21.227
		c-0.57,6.241,2.614,12.156,5.8,17.559c5.856,9.931,12.092,19.825,17.211,30.14c-18.816,11.53-36.919,24.027-54.246,37.416
		c-97.944,75.693-171.371,179.152-213.586,288.755c-14.794,38.392-25.693,77.992-32.265,118.158
		c-46.088,281.676,116.879,606.703,448.664,673.948c32.479,6.581,65.158,10.964,97.804,13.349c0.988,9.366,2.593,18.55,4.832,27.525
		c0.137,0.553,0.279,1.105,0.422,1.656c0.031,0.119,0.06,0.239,0.091,0.358c0.38,1.459,0.775,2.913,1.19,4.361
		c0.005,0.015,0.012,0.031,0.018,0.045c3.508,12.258,8.225,24.104,14.216,35.477l0.01,0.019c0.004,0.008,0.008,0.015,0.013,0.023
		c5.227,11.937,10.947,23.752,17.083,35.431c132.322,251.293,431.298,361.988,709.336,280.317
		c41.915-12.302,83.355-28.979,123.686-50.217C1907.892,1676.116,2033.958,1310.304,1881.685,1021.155z"/>
	<path style="fill:#E35410;" d="M1869.526,999.231c0-0.001-0.001-0.002-0.001-0.003c-1.873-4.359-3.94-8.665-6.174-12.908
		c-8.291-15.744-18.711-30.01-31.028-42.786c-0.009-0.01-0.017-0.02-0.026-0.03c-116.801-121.267-404.945-109.388-683.066,37.072
		c-159.796,84.147-284.802,196.157-355.837,307.514c-133.328-13.711-258.915-84.319-334.208-184.114
		c-91.145-120.789-111.376-278.148-69.12-418.596c13.493-44.916,33.025-88.575,40.916-134.538
		c6.614-38.412,8.304-92.068-2.431-141.837c-97.944,75.693-171.371,179.152-213.586,288.755
		c-14.794,38.392-25.693,77.992-32.265,118.158c-46.088,281.676,116.879,606.703,448.664,673.948
		c32.479,6.581,65.158,10.964,97.804,13.349c1.223,11.592,3.39,22.906,6.535,33.891c0.005,0.018,0.012,0.037,0.018,0.055
		c3.508,12.258,8.225,24.104,14.216,35.477l0.01,0.019c0.004,0.008,0.008,0.015,0.013,0.023
		c86.96,165.038,406.642,167.589,714.071,5.697c44.449-23.407,86.182-48.983,124.839-76.089
		C1810.732,1346.718,1930.397,1140.352,1869.526,999.231z"/>
	<path style="fill:#EF7F2D;" d="M1318.027,520.493c-144.136-158.967-378.511-258.972-610.148-228.862
		c-15.471,2.012-30.697,4.648-45.634,7.825c-13.637,56.165,15.145,115.951,27.135,173.958
		c15.554,75.322-14.153,151.381-25.98,227.215c-16.275,104.229,3.813,216.063,74.375,300.619
		c50.14,60.05,128.253,103.158,210.545,114.029c57.892-49.107,125.528-95.012,200.914-134.711
		c32.437-17.081,65.005-32.253,97.426-45.674c58.971-24.412,117.411-42.755,173.649-55.085c18.257-4.003,36.28-7.389,54.008-10.12
		C1464.073,746.693,1412.033,624.18,1318.027,520.493z"/>
	<path style="fill:#EC6F17;" d="M378.744,1119.415c-7.778-13.861-14.943-31.668-32.176-34.1
		c-64.611-9.116-7.454,128.126,49.469,139.279c23.912,4.682,44.336-0.248,48.321-23.766
		C450.332,1165.579,394.603,1147.674,378.744,1119.415z"/>
	<path style="fill:#F49C60;" d="M942.505,352.566c-30.597-10.222-63.152-19.157-95.51-15.03
		c-32.358,4.126-64.182,24.926-68.294,53.705c-3.964,27.751,17.354,52.619,29.598,78.397c37.065,78.046-9.369,166.699-4.858,251.298
		c1.686,31.625,10.702,62.923,26.322,91.386c8.061,14.69,18.142,28.906,32.524,39.103c12.037,8.536,26.591,13.881,41.456,17.472
		c56.27,13.583,115.795,2.962,174.063,0.901c58.27-2.061,123.741,7.98,158.28,49.676c4.051,4.89,7.509,10.061,10.574,15.417
		c58.971-24.412,117.411-42.755,173.649-55.085c-4.312-119.18-60.185-234.938-146.937-326.027
		C1186.129,462.174,1068.999,394.822,942.505,352.566z"/>
	<path style="fill:#3A1312;" d="M502.498,442.963c6.258,9.997,17.155,16.502,28.622,19.26c18.336,4.404,38.655-0.472,52.996-12.721
		c14.339-12.244,22.334-31.552,20.853-50.353c-1.347-17.072-13.372-23.045-24.039-34.173c-9.149-9.547-17.287-20.486-25.423-31.217
		c-3.215-4.241-6.434-8.452-9.709-12.53c-6.777-8.428-14.01-17.208-24.069-21.188c-12.17-4.814-25.948-1.617-38.331,2.621
		c-10.616,3.635-22.592,10.051-23.613,21.227c-0.57,6.241,2.614,12.156,5.8,17.559c5.856,9.931,12.092,19.825,17.211,30.14
		c3.934,7.929,7.226,16.1,9.07,24.768C495.207,412.06,493.974,429.355,502.498,442.963z"/>
	<path style="fill:#EC6F17;" d="M765.526,1337.223c-51.76,5.538-103.158,10.085-149.099-9.009
		c-32.945-13.691-58.419-37.978-85.447-59.586c-8.943-7.152-19.391-14.47-31.42-14.027c-21.793,0.804-31.591,25.71-27.997,44.799
		c5.652,30.003,29.108,54.909,54.565,75.283c59.47,47.592,128.833,75.712,202.777,84.699c-0.066,0.767-0.142,1.537-0.201,2.302
		C731.737,1422.024,744.367,1379.989,765.526,1337.223z"/>
	<path style="fill:#EF7F2D;" d="M1881.685,1021.155c-3.9-7.449-7.96-14.756-12.16-21.927c0,0.001,0.001,0.002,0.001,0.003
		c60.87,141.122-58.795,347.487-280.659,503.058c32.097,68.979,33.473,151.756,3.113,221.564
		c-25.512,58.636-70.716,105.958-109.739,156.609c-1.983,2.558-3.963,5.232-5.864,7.966c41.915-12.302,83.355-28.979,123.686-50.217
		C1907.892,1676.116,2033.958,1310.304,1881.685,1021.155z"/>
	<path style="fill:#FEF7C2;" d="M1824.257,1007.079c-1.72-4.01-3.619-7.966-5.671-11.863c-7.622-14.475-17.206-27.591-28.538-39.333
		c-107.349-111.396-372.272-100.385-628.031,34.3c-263.235,138.616-423.931,359.366-380.392,511.561
		c3.223,11.279,7.564,22.178,13.077,32.648l0.007,0.014c79.881,151.654,373.812,153.895,656.535,5.013
		C1726.715,1394.358,1889.919,1159.333,1824.257,1007.079z"/>
	<path style="fill:#E35410;" d="M1342.312,1838.786c-38.833-22.461-87.208-32.331-114.894-67.625
		c-10.685-13.623-17.727-30.519-31.55-40.94c-25.656-19.342-61.68-8.677-93.142-2.144c-30.748,6.382-62.495,7.917-93.715,4.536
		c-11.14-1.208-22.56-3.021-33.413-0.234c-10.853,2.792-21.101,11.698-21.294,22.904c-0.156,9.067,6.032,16.891,12.2,23.542
		c86.053,92.789,236.706,120.677,357.273,101.505c8.142-1.291,16.558-2.938,23.215-7.795c6.658-4.862,11.016-13.856,8.034-21.54
		C1352.859,1845.407,1347.5,1841.787,1342.312,1838.786z"/>
	<path style="fill:#F8AE36;" d="M1317.968,980.658c-42.07,40.136-52.964,91.795-58.636,147.23
		c-3.147,30.757-9.405,108.531,36.736,112.531c32.838,2.85,69.703-35.123,91.106-55.795
		c53.31-51.478,99.651-110.177,137.313-174.007c3.691-6.256,7.299-12.56,10.819-18.908c5.861-10.568,11.581-21.545,13.242-33.51
		C1562.475,857.799,1349.958,950.139,1317.968,980.658z"/>
	<path style="fill:#F8AE36;" d="M1749.137,1006.597c-50.234-46.143-119.902,19.425-161.727,48.614
		c-44.463,31.025-87.099,64.672-127.598,100.716c-23.771,21.16-119.22,100.75-52.256,130.08c10.207,4.468,21.71,4.663,32.855,4.585
		c70.504-0.492,145.612-5.837,213.094-27.61c80.468-25.963,124.404-79.752,127.347-164.745
		C1781.943,1066.719,1773.224,1028.726,1749.137,1006.597z"/>
	<path style="fill:#F8AE36;" d="M1200.373,1106.685c-3.754-6.256-7.428-12.049-10.855-17.243
		c-11.924-18.066-30.046-32.78-52.892-33.047c-14.268-0.171-28.194,4.263-41.267,9.871
		c-36.911,15.825-143.432,89.656-112.694,140.399c4.402,7.269,12.058,11.966,19.525,16.2
		c54.147,30.728,141.138,75.342,205.593,59.464c8.224-2.027,16.738-5.354,21.515-12.214
		C1260.485,1225.335,1228.21,1153.106,1200.373,1106.685z"/>
	<path style="fill:#F8AE36;" d="M1166.709,1313.817c-50.577,2.149-103.196,8.595-153.135,17.988
		c-59.437,11.186-127.966,34.197-146.039,98.275c-15.323,54.343,12.862,130.82,73.352,141.354
		c38.251,6.665,74.197-18.865,102.882-45.028c31.688-28.901,60.994-60.414,87.55-94.09c11.352-14.397,27.659-32.356,40.862-51.167
		C1187.216,1359.722,1213.544,1311.829,1166.709,1313.817z"/>
	<path style="fill:#F8AE36;" d="M1395.685,1326.738c-40.402-18.217-98.249-35.586-132.002-2.465
		c-6.709,6.577-12.465,15.152-16.945,26.114c-19.366,47.376-90.714,231.961,8.161,230.295c17.708-0.297,35.04-5.827,51.929-11.942
		c36.216-13.111,71.805-29.437,104.497-51.362c23.81-15.971,75.569-49.807,80.151-82.611
		C1498.959,1381.091,1431.607,1342.938,1395.685,1326.738z"/>
	<path style="fill:#F8AE36;" d="M1186.2,1408.229c-18.814-0.161-43.416,33.657-53.172,47.366
		c-20.102,28.243-37.337,58.529-51.352,90.241c-7.968,18.027-6.772,33.525,15.094,37.286c10.336,1.779,20.338,1.925,29.742,0.302
		c17.637-3.045,33.167-12.321,44.855-28.736c11.691-16.424,17.53-36.307,21.006-56.161
		C1194.628,1485.646,1212.728,1408.458,1186.2,1408.229z"/>
	<path style="fill:#F8AE36;" d="M1608.511,1319.99c-5.425-8.064-16.57-9.354-26.278-9.842c-48.597-2.412-97.237-3.917-145.89-4.502
		c-20.226-0.249-16.955,12.545-3.123,20.399c17.008,9.661,35.383,17.467,52.928,26.12c22.456,11.069,46.366,22.426,71.299,20.21
		c16.541-1.472,32.45-9.184,43.851-21.257C1609.21,1342.738,1614.942,1329.554,1608.511,1319.99z"/>
	<path style="fill:#F8AE36;" d="M1250.1,1051.298c-0.176-8.117-0.616-16.482-4.114-23.805c-3.496-7.323-10.799-13.408-18.906-13.047
		c-8.419,0.37-15.31,7.615-17.807,15.664c-2.497,8.049-1.481,16.731-0.039,25.043c1.873,10.787,16.463,81.301,30.404,80.273
		C1253.413,1134.412,1250.346,1062.621,1250.1,1051.298z"/>
	<path style="fill:#F8AE36;" d="M1105.352,1286.84c-0.573-1.33-1.803-2.256-3.035-3.02c-6.392-3.961-14.039-5.257-21.481-6.344
		c-29.876-4.341-60.07-6.485-90.261-6.412c-18.696,0.049-39.866,2.144-51.42,16.838c-7.825,9.949-7.593,27.211,6.355,32
		c11.934,4.093,31.946-3.732,44.002-5.827c35.54-6.183,71.082-12.365,106.621-18.548
		C1100.955,1294.689,1107.284,1291.337,1105.352,1286.84z"/>
	<path style="fill:#F39C5E;" d="M1865.96,1306.519c-20.134,65.9-35.822,135.327-76.916,190.64
		c-21.683,29.189-185.68,180.155-94.772,212.555c37.669,13.423,76.436-45.306,95.408-69.262
		c30.314-38.27,55.537-80.565,74.884-125.389c21.798-50.499,36.144-104.253,41.825-158.982c2.237-21.549,2.483-45.525-11.378-62.178
		c-2.777-3.332-6.353-6.402-10.665-6.899C1874.664,1285.885,1868.808,1297.198,1865.96,1306.519z"/>
	<path style="fill:#FEF7C2;" d="M1338.433,1139.225c-2.47,7.839,9.888,11.23,12.297,3.391c14.438-47.03,37.51-89.505,65.062-130.066
		c2.28-3.357-2.926-7.396-5.64-4.351C1376.324,1046.139,1353.664,1090.913,1338.433,1139.225z"/>
	<path style="fill:#FEF7C2;" d="M1283.758,1369.612c-1.454,27.635-2.407,59.386,3.661,86.495c0.765,3.415,6.587,3.668,7.162,0
		c4.311-27.499,1.415-58.982-1.786-86.495C1292.136,1363.941,1284.07,1363.673,1283.758,1369.612z"/>
	<path style="fill:#FEF7C2;" d="M1394.26,1473.788c3.685,1.929,9.203-2.319,6.268-6.27c-12.434-16.731-28.494-30.519-41.21-47.182
		c-13.895-18.207-24.575-38.211-35.915-58.041c-2.753-4.813-10.709-1.622-9.05,3.82
		C1326.27,1405.218,1357.042,1454.28,1394.26,1473.788z"/>
	<path style="fill:#FEF7C2;" d="M1458.241,1211.737c65.576-38.806,132.034-74.212,199.532-109.505
		c2.198-1.145,0.672-4.979-1.717-4.073c-70.36,26.753-139.452,64.872-201.065,108.02
		C1451.649,1208.521,1454.616,1213.886,1458.241,1211.737z"/>
	<path style="fill:#FEF7C2;" d="M1492.604,1235.425c38.853-10.67,78.166-22.119,115.442-37.462c2.95-1.213,1.925-5.642-1.349-4.892
		c-39.276,9.004-77.949,22.407-115.802,36.146C1487.054,1230.611,1488.548,1236.541,1492.604,1235.425z"/>
	<path style="fill:#FEF7C2;" d="M905.394,1442.845c76.494-27.951,151.381-57.433,229.137-82.085
		c3.656-1.159,2.158-6.533-1.581-5.734c-77.724,16.667-159.988,44.512-228.845,84.765
		C902.522,1440.716,903.567,1443.512,905.394,1442.845z"/>
	<path style="fill:#FEF7C2;" d="M998.414,1475.396c35.888-18.081,69.788-42.461,102.682-65.442c3.734-2.607,0.406-8.609-3.623-6.202
		c-34.76,20.75-70.936,41.749-102.434,67.269C992.463,1473.106,995.745,1476.74,998.414,1475.396z"/>
	<path style="fill:#FEF7C2;" d="M1111.888,1097.345c-1.639-1.262-3.069,1.281-2.024,2.626
		c31.968,41.15,63.985,78.972,88.239,125.563c1.681,3.23,6.263,0.395,4.811-2.811
		C1182.178,1176.921,1152.239,1128.443,1111.888,1097.345z"/>
	<path style="fill:#FEF7C2;" d="M1087.652,1168.322c21.23,19.98,44.256,38.894,68.37,55.283c3.338,2.271,7.126-2.787,4.276-5.539
		c-20.965-20.239-44.249-38.885-68.144-55.576C1088.68,1160.063,1084.609,1165.462,1087.652,1168.322z"/>
	<path style="fill:#FEF7C2;" d="M1294.942,1151.474c-0.351,2.178,2.653,3.907,3.847,1.622c14.402-27.586,25.313-59.839,31.9-90.202
		c0.897-4.126-5.286-7.357-7.24-3.055C1310.543,1088.278,1299.909,1120.648,1294.942,1151.474z"/>
	<path style="fill:#F3902A;" d="M1374.852,1173.52c32.841-23.84,60.395-60.127,83.167-93.496
		c23.707-34.743,51.663-76.467,60.041-118.27c0.619-3.084-3.315-4.843-5.091-2.144c-23.276,35.371-38.314,75.946-62.083,111.473
		c-23.781,35.552-53.077,65.988-78.407,100.064C1371.459,1172.521,1373.478,1174.519,1374.852,1173.52z"/>
	<path style="fill:#F3902A;" d="M1432.76,1263.878c-4.151-0.137-5.281,6.811-1.004,7.415c80.806,11.43,174.497-4.979,245.464-45.866
		c53.398-30.767,102.519-103.903,62.097-164.078c-2.5-3.722-7.932-0.517-5.986,3.503c35.401,73.062-19.057,137.447-84.47,166.29
		C1580.24,1261.403,1506.64,1266.314,1432.76,1263.878z"/>
	<path style="fill:#F3902A;" d="M1020.344,1199.201c-29.06-31.562,6.46-54.563,28.141-73.31c2.373-2.047-0.646-5.267-3.15-4.083
		c-21.194,10.046-42.909,27.776-45.724,52.736c-2.548,22.582,13.174,36.667,30.465,48.224
		c47.932,32.044,120.633,55.927,178.17,41.023c3.788-0.979,2.519-5.9-0.855-6.324c-45.252-5.69-87.23-6.645-130.058-24.993
		C1058.79,1224.526,1034.207,1214.261,1020.344,1199.201z"/>
	<path style="fill:#F3902A;" d="M1176.419,1438.625c1.523,22.665-0.171,44.395-9.172,65.51
		c-9.201,21.589-24.426,35.99-40.614,52.283c-1.783,1.793,0.468,4.492,2.626,3.401c41.13-20.769,61.161-78.689,51.781-121.817
		C1180.483,1435.439,1176.241,1435.965,1176.419,1438.625z"/>
	<path style="fill:#F3902A;" d="M1011.165,1279.191c-17.737,2.402-35.233,5.861-52.276,11.415c-1.184,0.385-1.069,2.485,0.312,2.309
		c17.891-2.246,35.279-6.519,52.456-11.937C1012.831,1280.609,1012.317,1279.035,1011.165,1279.191z"/>
	<path style="fill:#F3902A;" d="M1043.043,1502.007c-20.599,15.376-48.957,38.421-74.655,43.264
		c-41.927,7.893-54.95-36.014-72.244-63.045c-2.414-3.776-8.044-1.335-7.128,3.006c6.633,31.396,30.185,68.292,65.016,71.683
		c34.775,3.381,67.026-31.946,90.436-53.062C1045.44,1502.976,1044.122,1501.203,1043.043,1502.007z"/>
	<path style="fill:#F3902A;" d="M1437.873,1374.806c-3.165-0.049-4.923,4.955-1.72,6.343c44.297,19.206,25.203,63.562-4.618,85.579
		c-16.015,11.824-33.832,21.646-51.082,31.488c-26.307,15.011-138.636,81.803-147.393,25.569c-0.253-1.617-2.399-1.189-2.865,0
		c-9.807,24.945,18.526,37.768,39.854,34.943c43.074-5.705,87.464-33.13,124.005-54.948c29.744-17.754,69.985-38.246,78.282-75.464
		C1477.673,1404.385,1464.918,1375.22,1437.873,1374.806z"/>
	<path style="fill:#F3902A;" d="M1574.74,1343.011c-13.8,2.831-27.566,4.897-41.618,2.816c-12.804-1.9-23.515-8.97-35.905-11.459
		c-2.361-0.472-5.403,2.246-3.567,4.638c17.267,22.46,60.466,20.351,82.283,6.83
		C1577.461,1344.891,1576.445,1342.66,1574.74,1343.011z"/>
	<path style="fill:#F3902A;" d="M1229.181,1089.652c0.789,1.379,3.235,0.848,3.116-0.843c-1.055-14.821-3.673-29.574-5.001-44.385
		c-0.353-3.927-5.642-3.873-6.068,0C1219.547,1059.684,1221.444,1076.127,1229.181,1089.652z"/>
</g>
</svg>
